<?xml version="1.0" standalone="no"?>
<!DOCTYPE svg PUBLIC "-//W3C//DTD SVG 20010904//EN"
 "http://www.w3.org/TR/2001/REC-SVG-20010904/DTD/svg10.dtd">
<svg version="1.0" xmlns="http://www.w3.org/2000/svg"
 width="1000.000000pt" height="1000.000000pt" viewBox="0 0 1000.000000 1000.000000"
 preserveAspectRatio="xMidYMid meet">

<g transform="translate(0.000000,1000.000000) scale(0.100000,-0.100000)"
fill="#000000" stroke="none">
<path d="M4690 9770 c-406 -33 -742 -94 -1088 -199 -938 -283 -1761 -840
-2387 -1615 -456 -565 -803 -1328 -940 -2071 -147 -799 -96 -1603 152 -2360
290 -886 771 -1594 1493 -2195 673 -560 1516 -933 2395 -1059 1342 -194 2727
196 3765 1059 641 534 1088 1146 1390 1905 558 1402 418 2986 -378 4285 -296
484 -752 973 -1232 1321 -723 526 -1533 832 -2430 919 -150 15 -606 21 -740
10z m-87 -1536 c59 -32 104 -84 115 -131 5 -21 21 -99 35 -173 91 -474 285
-920 581 -1336 l90 -125 36 113 c20 62 51 142 69 178 147 291 407 519 707 619
182 61 181 61 1140 61 481 0 874 -3 874 -8 0 -4 -90 -277 -200 -607 l-200
-600 0 -861 c0 -528 -4 -902 -10 -965 -47 -461 -238 -876 -555 -1208 -278
-290 -612 -484 -990 -577 -191 -46 -294 -54 -738 -54 l-412 0 -425 -365 c-502
-432 -511 -437 -677 -443 -274 -11 -751 72 -1053 181 -488 177 -886 471 -1159
856 -62 86 -91 150 -91 196 0 72 67 177 134 209 24 11 1651 426 1674 426 1 0
-46 41 -105 92 -142 121 -395 376 -508 511 -373 448 -623 952 -724 1458 -42
213 -55 344 -55 589 0 264 16 435 65 672 70 345 227 778 310 852 82 75 210 70
285 -11 12 -14 61 -102 108 -196 160 -323 349 -592 600 -855 l89 -93 43 168
c89 356 213 648 416 974 73 120 199 295 275 384 81 94 169 118 256 69z"/>
<path d="M4373 7484 c-189 -319 -333 -748 -368 -1095 l-6 -67 33 -25 c75 -57
300 -192 438 -262 256 -129 466 -207 744 -276 88 -21 165 -39 173 -39 10 0 13
20 13 76 l0 76 -95 101 c-377 406 -672 904 -840 1417 -26 80 -48 149 -49 154
-1 5 -20 -22 -43 -60z"/>
<path d="M2672 7053 c-71 -266 -96 -468 -96 -778 -1 -297 11 -402 74 -651 50
-197 94 -314 192 -512 155 -314 350 -576 662 -888 212 -211 376 -353 730 -629
119 -92 216 -171 216 -174 0 -3 -487 -128 -1082 -277 l-1083 -270 85 -83 c371
-361 874 -566 1523 -621 l128 -11 52 41 c29 23 245 205 480 403 l429 362 511
6 c478 5 519 7 620 28 158 32 276 73 422 146 478 239 800 681 880 1210 12 83
15 251 15 1010 l0 910 125 375 c69 206 125 376 125 378 0 2 -264 2 -587 0
-572 -4 -590 -5 -668 -26 -233 -65 -419 -218 -521 -427 -81 -167 -78 -139 -82
-782 -1 -315 -7 -573 -11 -573 -5 0 -78 9 -162 20 -669 89 -1278 313 -1799
663 -198 133 -369 275 -556 461 -207 208 -339 370 -504 622 -49 76 -92 139
-94 141 -2 2 -13 -31 -24 -74z m4002 -634 c55 -14 110 -59 137 -112 30 -59 24
-150 -15 -206 -34 -48 -113 -91 -168 -91 -110 0 -208 98 -208 207 1 92 60 173
147 200 49 15 56 15 107 2z"/>
</g>
</svg>
